<svg width="100" height="56" viewBox="0 0 100 56" fill="none" xmlns="http://www.w3.org/2000/svg">
<path d="M64.8964 43.6489C64.5483 43.6489 64.2209 43.5943 63.9143 43.4853C63.613 43.3711 63.3506 43.2049 63.1271 42.9869C62.9037 42.7688 62.7271 42.4988 62.5972 42.1769C62.4724 41.8497 62.4101 41.4733 62.4101 41.0475C62.4101 40.627 62.475 40.2531 62.6049 39.926C62.7348 39.5937 62.9115 39.3133 63.1349 39.0849C63.3636 38.8564 63.6286 38.6825 63.9299 38.563C64.2313 38.4436 64.5509 38.3839 64.8886 38.3839C65.2575 38.3839 65.5745 38.4514 65.8395 38.5864C66.1045 38.7214 66.3201 38.8746 66.4864 39.0459L65.8862 39.778C65.7563 39.6638 65.6186 39.5678 65.4732 39.4899C65.3277 39.412 65.1458 39.373 64.9276 39.373C64.7301 39.373 64.5483 39.412 64.382 39.4899C64.2209 39.5626 64.0806 39.669 63.9611 39.8092C63.8416 39.9494 63.7481 40.1207 63.6805 40.3232C63.6182 40.5257 63.587 40.7542 63.587 41.0086C63.587 41.533 63.7039 41.9406 63.9377 42.2314C64.1767 42.517 64.5353 42.6597 65.0133 42.6597C65.1172 42.6597 65.2185 42.6468 65.3173 42.6208C65.416 42.5948 65.4965 42.5559 65.5589 42.504V41.6317H64.7171V40.6971H66.5721V43.0336C66.3955 43.2049 66.1616 43.3503 65.8707 43.4697C65.5797 43.5892 65.2549 43.6489 64.8964 43.6489Z" fill="#171321"/>
<path d="M67.6133 43.5554V38.4774H68.7591V43.5554H67.6133Z" fill="#171321"/>
<path d="M71.0254 43.5554V39.4431H69.6303V38.4774H73.5741V39.4431H72.179V43.5554H71.0254Z" fill="#171321"/>
<path d="M74.4484 43.5554V38.4774H75.5941V42.5896H77.6049V43.5554H74.4484Z" fill="#171321"/>
<path d="M80.158 40.9852L80.0333 41.4525H81.1166L80.9997 40.9852C80.927 40.7308 80.8568 40.4608 80.7893 40.1752C80.7217 39.8897 80.6542 39.6145 80.5866 39.3497H80.5555C80.4931 39.6197 80.4282 39.8975 80.3606 40.183C80.2983 40.4634 80.2307 40.7308 80.158 40.9852ZM78.3186 43.5554L79.9086 38.4774H81.2881L82.8781 43.5554H81.6622L81.3505 42.3482H79.7994L79.4877 43.5554H78.3186Z" fill="#171321"/>
<path d="M83.6719 43.5554V38.4774H85.41C85.675 38.4774 85.9192 38.4981 86.1427 38.5397C86.3713 38.576 86.5687 38.6435 86.735 38.7422C86.9065 38.8408 87.039 38.9706 87.1325 39.1316C87.2312 39.2926 87.2806 39.4951 87.2806 39.7391C87.2806 39.8533 87.265 39.9676 87.2338 40.0818C87.2027 40.196 87.1585 40.3025 87.1013 40.4011C87.0442 40.4998 86.974 40.588 86.8909 40.6659C86.8129 40.7438 86.722 40.8009 86.6181 40.8373V40.8684C86.748 40.8996 86.8675 40.9489 86.9766 41.0164C87.0857 41.0787 87.1819 41.1592 87.265 41.2578C87.3481 41.3565 87.4131 41.4733 87.4599 41.6083C87.5066 41.7381 87.53 41.8887 87.53 42.06C87.53 42.3196 87.478 42.5429 87.3741 42.7298C87.2754 42.9168 87.1351 43.0725 86.9532 43.1971C86.7766 43.3166 86.5687 43.4074 86.3297 43.4697C86.0907 43.5268 85.8335 43.5554 85.5581 43.5554H83.6719ZM84.8177 40.5101H85.3555C85.636 40.5101 85.8387 40.4556 85.9634 40.3466C86.0933 40.2376 86.1582 40.0922 86.1582 39.9104C86.1582 39.7131 86.0933 39.5729 85.9634 39.4899C85.8335 39.4068 85.6334 39.3653 85.3633 39.3653H84.8177V40.5101ZM84.8177 42.6675H85.4646C86.0933 42.6675 86.4077 42.4391 86.4077 41.9822C86.4077 41.7589 86.3297 41.6005 86.1738 41.5071C86.018 41.4084 85.7815 41.3591 85.4646 41.3591H84.8177V42.6675Z" fill="#171321"/>
<g clip-path="url(#clip0_2_8)">
<path d="M55.036 36.3761V28.9108C54.8561 29.1966 54.5741 29.6619 54.3155 29.8966C53.8478 30.3211 53.2342 30.6923 52.518 30.6923V29.0171C52.6411 29.0171 52.8669 28.947 53.186 28.6573C53.4947 28.3772 53.8111 27.9614 54.0986 27.4626C54.6877 26.441 55.036 25.2866 55.036 24.6496H53.2374V22.9744H55.036V19.9829H56.7146V22.9744H58.5132V24.6496H56.7146C56.7146 25.694 57.152 26.5766 57.7248 27.2041C58.3322 27.8695 58.9635 28.1197 59.2326 28.1197V29.7949C58.3925 29.7949 57.4565 29.2909 56.7146 28.5703V36.3761H55.036Z" fill="#171321"/>
<path fill-rule="evenodd" clip-rule="evenodd" d="M58.5132 22.3761H60.1919V25.4872C60.1919 27.1031 59.9509 29.5375 59.3874 31.5431C59.1044 32.5507 58.7562 33.3901 58.3577 33.9595C57.9568 34.5322 57.6052 34.7009 57.3142 34.7009V36.3761C58.3871 36.3761 59.182 35.7072 59.7338 34.9188C60.288 34.127 60.6986 33.0818 61.0038 31.9953C61.2533 31.1072 61.4433 30.1513 61.5809 29.213C61.9514 30.0342 62.3835 30.8438 62.8611 31.6019C63.1098 31.9966 63.3737 32.3819 63.6514 32.7515C63.1775 33.2258 62.6964 33.6331 62.2363 33.9524C61.468 34.4856 60.8629 34.7009 60.4916 34.7009V36.3761C61.3793 36.3761 62.333 35.9257 63.1947 35.3278C63.7107 34.9696 64.2325 34.5315 64.7381 34.0354C65.0432 34.3524 65.3599 34.6464 65.6868 34.9115C66.7491 35.7731 67.9801 36.3761 69.3046 36.3761V34.7009C68.5007 34.7009 67.6334 34.3316 66.7455 33.6115C66.4485 33.3706 66.156 33.0958 65.8706 32.7928C67.4393 30.8732 68.765 28.3348 68.765 25.9658V25.7265C68.765 25.3961 68.4966 25.1282 68.1655 25.1282H65.8617L67.4638 21.5428C67.6407 21.1471 67.3505 20.7009 66.9163 20.7009H58.5132V22.3761ZM64.7864 31.4623C65.9176 30.0079 66.7749 28.3282 67.0172 26.8034H64.1989C63.7647 26.8034 63.4745 26.3572 63.6513 25.9615L65.2535 22.3761H61.8705V23.812C61.8705 25.5747 62.7958 28.3512 64.2822 30.7101C64.4452 30.9687 64.6135 31.22 64.7864 31.4623Z" fill="#171321"/>
</g>
<path d="M73.1318 25.2947C73.2701 25.8617 73.3853 26.4938 73.4735 27.2013C73.4598 27.2926 73.4004 27.4772 73.2244 27.751C73.0315 28.0509 72.7498 28.3782 72.42 28.6833C72.0908 28.988 71.7362 29.2496 71.4116 29.4301C71.0667 29.6219 70.8396 29.6752 70.7434 29.6752V31.3504C71.2617 31.3504 71.7885 31.1383 72.2287 30.8935C72.6892 30.6374 73.151 30.2914 73.5613 29.9118C73.5978 29.878 73.634 29.8439 73.67 29.8093C73.7055 30.5993 73.7193 31.2799 73.6945 31.8685C73.6601 32.6817 73.5533 33.2453 73.3759 33.6405C73.2134 34.0026 72.9859 34.2389 72.6277 34.4047C72.2365 34.5857 71.6471 34.7009 70.7434 34.7009V36.3761C71.7582 36.3761 72.6263 36.2519 73.334 35.9244C74.0746 35.5816 74.5871 35.0402 74.9079 34.3253C75.2139 33.6436 75.3339 32.8311 75.3716 31.9392C75.4096 31.0408 75.3658 29.9864 75.2984 28.7906C75.1901 26.8681 74.9231 25.309 74.52 24.0258C75.3595 23.1216 76.1147 22.0344 76.5053 20.995L74.9335 20.4068C74.7121 20.9961 74.308 21.6556 73.8089 22.2827C73.3151 21.3339 72.7149 20.5828 72.0263 19.9604L70.8994 21.202C71.5323 21.774 72.1094 22.5168 72.5715 23.5875C72.2293 23.8887 71.8924 24.1392 71.5839 24.323C71.1599 24.5756 70.8775 24.6496 70.7434 24.6496V26.3248C71.3287 26.3248 71.9268 26.0697 72.4444 25.7614C72.6725 25.6255 72.9028 25.4684 73.1318 25.2947Z" fill="#171321"/>
<path d="M81.4261 20.6439C83.4384 20.4543 85.5848 20.2495 86.1724 20.1838L86.3591 21.8487C86.0832 21.8795 85.4843 21.939 84.7247 22.0126C84.7684 23.2352 84.9363 26.1607 85.3785 28.9509C85.6392 30.5961 85.9873 32.1398 86.4378 33.2515C86.6642 33.8101 86.8953 34.2055 87.1134 34.4478C87.3249 34.6827 87.4637 34.7015 87.53 34.7009V36.3761C86.8244 36.3823 86.2749 36.023 85.8647 35.5674C85.4612 35.1192 85.142 34.5222 84.8816 33.8795C84.3585 32.5887 83.987 30.8947 83.7204 29.2126C83.278 26.4211 83.1022 23.5124 83.0509 22.1729C82.6332 22.2126 82.204 22.2532 81.7797 22.2932C81.8164 27.5808 81.7103 30.2551 80.7182 33.7592L82.1383 33.2805C81.8537 32.5657 81.5725 31.841 81.3661 31.2669L82.9461 30.7012C83.2516 31.5509 83.7361 32.7664 84.1484 33.779C84.3538 34.2832 84.5397 34.7336 84.6743 35.0579C84.7416 35.22 84.7961 35.3506 84.8336 35.4405C84.8524 35.4854 84.867 35.5202 84.8768 35.5437L84.8917 35.5791L84.8917 35.5792C84.8917 35.5792 84.8917 35.5792 84.1177 35.903C83.3436 36.2269 83.3436 36.2269 83.3436 36.2269L83.3281 36.19C83.3181 36.1661 83.3033 36.1307 83.2843 36.0853C83.2463 35.9943 83.1913 35.8625 83.1235 35.699C83.0271 35.467 82.9047 35.1708 82.7677 34.8365L79.2474 36.0233C78.779 36.1812 78.3312 35.7373 78.4863 35.2688L78.637 34.8135C79.9842 30.7449 80.14 28.3459 80.102 22.4508C79.6572 22.4925 79.2474 22.5308 78.8976 22.5634C78.7482 22.5773 78.6097 22.5902 78.4841 22.6019C78.4997 25.7975 78.4315 28.954 78.1005 31.3825C77.9229 32.6859 77.6612 33.8498 77.2577 34.711C76.8659 35.5473 76.204 36.3609 75.1291 36.3702L75.1145 34.6951C75.1936 34.6944 75.4309 34.655 75.7371 34.0016C76.0315 33.3731 76.2663 32.4105 76.4372 31.1568C76.7766 28.6661 76.8304 25.3025 76.8002 21.8466L76.7983 21.6266C76.7956 21.3156 77.032 21.0544 77.3423 21.0256C78.7036 20.8991 80.0649 20.7721 81.4261 20.6439Z" fill="#171321"/>
<path d="M44.3296 24.4145L46.2198 30.2298C46.3914 30.7578 46.206 31.3407 45.753 31.6698L29.3754 43.5555L44.3296 24.4145Z" fill="#FCA326"/>
<path d="M14.4302 24.4145L12.5332 30.2298C12.3616 30.7578 12.547 31.3407 13 31.6698L29.3754 43.5554L14.4302 24.4145Z" fill="#FCA326"/>
<path d="M29.3754 43.5555L35.6046 24.4145H44.3296L29.3754 43.5555Z" fill="#FC6D26"/>
<path d="M29.3754 43.5555L14.4302 24.4145H23.1552L29.3754 43.5555Z" fill="#FC6D26"/>
<path d="M44.3297 24.4145H35.6046L39.3527 12.8868C39.5449 12.297 40.3825 12.297 40.5816 12.8868L44.3297 24.4145Z" fill="#E24329"/>
<path d="M14.4302 24.4145H23.1552L19.4002 12.8868C19.208 12.297 18.3705 12.297 18.1714 12.8868L14.4302 24.4145Z" fill="#E24329"/>
<path d="M29.3754 43.5555L35.6046 24.4145H23.1552L29.3754 43.5555Z" fill="#E24329"/>
<defs>
<clipPath id="clip0_2_8">
<rect width="16.7866" height="16.7521" fill="white" transform="translate(52.518 19.6239)"/>
</clipPath>
</defs>
</svg>
