<?xml version="1.0" encoding="utf-8"?>
<!-- Generator: Adobe Illustrator 25.4.1, SVG Export Plug-In . SVG Version: 6.00 Build 0)  -->
<svg version="1.1" id="图层_1" xmlns="http://www.w3.org/2000/svg" xmlns:xlink="http://www.w3.org/1999/xlink" x="0px" y="0px"
	 viewBox="0 0 157.25 35.04" style="enable-background:new 0 0 157.25 35.04;" xml:space="preserve">
<style type="text/css">
	.st0{fill:#FFFFFF;}
</style>
<g>
	<g>
		<path class="st0" d="M57.2,20.8l4.32-20.14h5.26L62.47,20.8H57.2z"/>
		<path class="st0" d="M68.08,20.8L72.54,0h0.5l11.22,11.75l2.38-11.1h4.85l-4.48,20.91h-0.46L75.29,9.81L72.94,20.8H68.08z"/>
		<path class="st0" d="M92.79,20.8l4.32-20.14h13.71l-0.88,4.1h-8.47l-0.86,4.02h7.58l-0.87,4.07h-7.58l-1.71,7.96h-5.24V20.8z"/>
		<path class="st0" d="M112.11,20.8l4.32-20.14h5.26l-4.32,20.14H112.11z"/>
		<path class="st0" d="M122.99,20.8L127.45,0h0.5l11.22,11.75l2.38-11.1h4.85l-4.48,20.91h-0.46L130.67,9.81l-2.39,10.99H122.99z"/>
		<path class="st0" d="M147.67,20.8l4.32-20.14h5.26l-4.32,20.14H147.67z"/>
	</g>
	<g>
		<g>
			<polygon class="st0" points="58.17,24.65 57.44,24.65 57.26,25.53 55.68,25.53 55.54,26.15 57.12,26.15 56.83,27.51 55.26,27.51 
				53.7,34.76 54.43,34.76 55.85,28.14 56.7,28.14 55.28,34.76 56,34.76 57.42,28.14 58.31,28.14 58.44,27.51 57.56,27.51 
				57.85,26.15 58.73,26.15 58.87,25.53 57.98,25.53 			"/>
			<polygon class="st0" points="62.65,34.61 61.55,31.92 63.16,29.86 63.53,28.31 61.58,28.31 63.5,25.57 63.72,24.67 59.73,24.67 
				59.6,25.29 62.86,25.29 60.36,28.93 62.67,28.93 62.52,29.65 61.28,31.24 60.7,29.83 60,30.13 60.74,31.93 58.63,34.62 
				59.23,34.9 61.01,32.61 61.95,34.91 			"/>
			<polygon class="st0" points="59.97,26.12 57.07,34.73 57.78,34.79 60.68,26.19 			"/>
		</g>
		<g>
			<path class="st0" d="M88.13,24.67h-2.98l-2.16,10.09h0.73l0.29-1.33l2.42-0.67l-0.13-2.73L88.13,24.67z M85.65,32.35l-1.52,0.42
				l1.6-7.47h1.45l-1.64,4.77L85.65,32.35z"/>
			<path class="st0" d="M91.63,34.83l0.62-0.42l-1.62-1.88l1.63-1.16l-0.41-0.45l-1.62,1.15l-1.67-1.93l0.11-0.53h3.85l1.06-4.94
				h-4.57l-0.13,0.62l0,0l-2.06,9.59l2.6-0.57l-0.06-0.6l-1.65,0.36l0.65-3.01L91.63,34.83z M88.81,28.99l0.33-1.54h3.12l-0.33,1.54
				C91.93,28.99,88.81,28.99,88.81,28.99z M92.72,25.29l-0.33,1.54h-3.12l0.33-1.54H92.72z"/>
		</g>
		<g>
			<polygon class="st0" points="117,25.48 118.6,25.29 118.63,24.67 114.79,25.13 114.76,25.75 116.26,25.57 115.81,27.66 
				114.09,27.66 113.96,28.28 115.67,28.28 114.29,34.76 115.01,34.76 116.4,28.28 118.12,28.28 118.25,27.66 116.53,27.66 			"/>
			<polygon class="st0" points="112.73,34.76 113.46,34.76 114.71,28.91 113.98,28.91 			"/>
			<polygon class="st0" points="116.25,33.43 116.98,33.43 117.95,28.91 117.22,28.91 			"/>
			<polygon class="st0" points="121.08,27.59 120.78,24.9 120.04,25.07 120.35,27.76 			"/>
			<polygon class="st0" points="120.2,31.14 120,28.55 119.26,28.7 119.46,31.29 			"/>
			<polygon class="st0" points="121.99,32.15 122.06,31.53 121.4,31.58 122.86,24.76 122.14,24.76 120.67,31.64 118.06,31.84 
				117.99,32.46 120.53,32.26 120,34.76 120.72,34.76 121.27,32.2 			"/>
		</g>
		<g>
			<polygon class="st0" points="145.75,30.65 144.8,30.74 145.73,26.43 146.7,26.43 146.83,25.8 145.86,25.8 146.08,24.77 
				145.36,24.77 145.14,25.8 144.16,25.8 144.03,26.43 145,26.43 144.06,30.81 143.03,30.91 142.98,31.53 143.93,31.44 143.38,34 
				142.15,34.48 142.34,35.04 144.02,34.39 144.67,31.37 145.7,31.27 			"/>
			<polygon class="st0" points="150.81,34.53 149.12,32.87 151.3,31.36 151.96,28.31 149.94,28.31 150.34,26.43 152.35,26.43 
				152.48,25.8 150.48,25.8 150.7,24.77 149.97,24.77 149.75,25.8 147.71,25.8 147.58,26.43 149.62,26.43 149.21,28.31 
				147.17,28.31 147.04,28.93 151.1,28.93 150.64,31.09 148.69,32.44 147.3,31.08 147.66,29.4 146.94,29.4 146.52,31.35 
				148.07,32.87 145.68,34.53 146.08,34.98 148.5,33.3 150.21,34.98 			"/>
		</g>
	</g>
	<polygon class="st0" points="39.7,0.6 33.37,27.46 13.15,14.71 14.9,7.2 27.44,15.23 30.95,0.6 7.09,0.57 0,34.8 8.36,34.8 
		12.33,18.23 19.93,23.05 17.14,34.8 40.62,34.81 48.05,0.61 	"/>
</g>
</svg>
