<?xml version="1.0" encoding="utf-8"?>
<!-- Generator: Adobe Illustrator 25.4.1, SVG Export Plug-In . SVG Version: 6.00 Build 0)  -->
<svg version="1.1" id="图层_1" xmlns="http://www.w3.org/2000/svg" xmlns:xlink="http://www.w3.org/1999/xlink" x="0px" y="0px"
	 viewBox="0 0 186.53 45.74" style="enable-background:new 0 0 186.53 45.74;" xml:space="preserve">
<style type="text/css">
	.st0{fill:#FFFFFF;}
</style>
<g>
	<g>
		<g>
			<g>
				<path class="st0" d="M141.55,8.58v12.21h4.76v1.86h-7.06V8.58H141.55z"/>
				<path class="st0" d="M152.73,11.31c1.88,0,3.18,0.89,3.87,1.8v-1.62h2.33v11.15h-2.33v-1.66c-0.71,0.95-2.04,1.84-3.91,1.84
					c-2.89,0-5.22-2.37-5.22-5.81C147.46,13.58,149.79,11.31,152.73,11.31z M153.21,13.31c-1.72,0-3.38,1.3-3.38,3.7
					s1.66,3.81,3.38,3.81c1.74,0,3.38-1.36,3.38-3.77C156.59,14.67,154.95,13.31,153.21,13.31z"/>
				<path class="st0" d="M168.15,11.31c2.96,0,5.24,2.27,5.24,5.71s-2.31,5.81-5.24,5.81c-1.84,0-3.16-0.83-3.89-1.8v1.62h-2.31
					V7.66h2.31v5.49C164.99,12.14,166.39,11.31,168.15,11.31z M167.65,13.31c-1.72,0-3.38,1.36-3.38,3.74
					c0,2.41,1.66,3.77,3.38,3.77c1.74,0,3.4-1.4,3.4-3.81S169.39,13.31,167.65,13.31z"/>
				<path class="st0" d="M179.73,22.83c-2.67,0-4.55-1.58-4.66-3.6h2.39c0.08,0.91,0.95,1.66,2.23,1.66c1.34,0,2.04-0.57,2.04-1.34
					c0-2.19-6.48-0.93-6.48-5.02c0-1.78,1.66-3.22,4.29-3.22c2.53,0,4.19,1.36,4.31,3.58h-2.31c-0.08-0.97-0.83-1.64-2.09-1.64
					c-1.23,0-1.88,0.51-1.88,1.26c0,2.25,6.3,0.99,6.42,5.02C184,21.41,182.36,22.83,179.73,22.83z"/>
			</g>
		</g>
		<g>
			<path class="st0" d="M34.7,22.77l4.73-22.06h5.76l-4.73,22.06H34.7z"/>
			<path class="st0" d="M44.71,22.77L49.59,0h0.55l12.29,12.87l2.6-12.15h5.31l-4.91,22.89h-0.5L52.61,10.74l-2.58,12.03H44.71z"/>
			<path class="st0" d="M70.29,22.77l4.73-22.06h15.01L89.06,5.2h-9.28l-0.94,4.4h8.3l-0.96,4.46h-8.3l-1.87,8.72h-5.72V22.77z"/>
			<path class="st0" d="M89.19,22.77l4.73-22.06h5.76l-4.73,22.06H89.19z"/>
			<path class="st0" d="M98.99,22.77L103.87,0h0.55l12.29,12.87l2.6-12.15h5.31l-4.91,22.89h-0.5L107.4,10.74l-2.62,12.03H98.99z"/>
			<path class="st0" d="M124.46,22.77l4.73-22.06h5.76l-4.73,22.06H124.46z"/>
		</g>
		<polygon class="st0" points="25.89,0.34 21.79,17.76 8.66,9.49 9.8,4.62 17.93,9.83 20.21,0.33 4.73,0.32 0.13,22.53 5.55,22.53 
			8.13,11.78 13.06,14.91 11.25,22.53 26.49,22.54 31.31,0.34 		"/>
	</g>
	<g>
		<path class="st0" d="M2.21,35.13c-0.41,0.66-0.89,1.25-1.36,1.7C0.66,36.67,0.26,36.39,0,36.27c0.92-0.77,1.72-1.95,2.14-3.17
			l0.98,0.23C3,33.65,2.86,33.96,2.71,34.26H6v0.87H4.09c0.25,0.44,0.48,0.89,0.59,1.24l-0.89,0.34c-0.12-0.41-0.43-1.06-0.73-1.58
			C3.06,35.13,2.21,35.13,2.21,35.13z M0.78,38.41h0.99v7.25H0.78V38.41z M2.27,36.5c0.52,0.51,1.14,1.22,1.41,1.7l-0.81,0.52
			C2.62,38.26,2.03,37.52,1.5,37L2.27,36.5z M4.46,43.81v0.69H3.52v-5.38H8.8v4.7L4.46,43.81L4.46,43.81z M11.51,44.44
			c0,0.6-0.16,0.88-0.63,1.04c-0.45,0.15-1.25,0.14-2.5,0.14c-0.06-0.26-0.19-0.63-0.34-0.89c0.95,0.03,1.88,0.03,2.13,0
			c0.28,0,0.34-0.07,0.34-0.29v-6.62H4.09V36.9h7.42V44.44z M4.46,39.91v1.13h3.36v-1.13H4.46z M7.83,43v-1.21H4.46V43H7.83z
			 M11.99,34.26v0.87H9.78c0.29,0.43,0.54,0.85,0.67,1.18l-0.89,0.4c-0.15-0.41-0.51-1.06-0.89-1.58H7.62
			c-0.33,0.56-0.69,1.07-1.09,1.46c-0.18-0.15-0.59-0.43-0.82-0.56c0.75-0.71,1.39-1.8,1.73-2.91l0.96,0.22
			c-0.08,0.32-0.21,0.63-0.34,0.93L11.99,34.26L11.99,34.26z"/>
		<path class="st0" d="M31.46,43.22h-5.62v2.45h-1.03v-2.45h-5.53v-0.95h5.53v-1.3h-4.24V35.5h2.53c-0.3-0.55-0.84-1.33-1.33-1.89
			l0.85-0.41c0.58,0.62,1.21,1.46,1.48,2.02l-0.56,0.29h3.31c0.48-0.66,1.04-1.62,1.37-2.31l1.08,0.37
			c-0.4,0.65-0.89,1.36-1.32,1.94h2.29v5.47h-4.44v1.3h5.62L31.46,43.22L31.46,43.22z M21.57,37.81h3.24v-1.44h-3.24V37.81z
			 M24.81,40.1v-1.47h-3.24v1.47H24.81z M29.25,36.36h-3.41v1.44h3.41V36.36z M29.25,38.63h-3.41v1.47h3.41V38.63z"/>
		<path class="st0" d="M40.6,39.63c0-0.58,0.41-0.98,0.91-0.98c0.49,0,0.91,0.4,0.91,0.98c0,0.55-0.41,0.95-0.91,0.95
			S40.6,40.18,40.6,39.63z"/>
		<path class="st0" d="M63.2,40.15c0,0-0.01,0.32-0.04,0.47c-0.26,3.06-0.54,4.24-0.95,4.67c-0.26,0.28-0.52,0.37-0.92,0.39
			c-0.34,0.03-1,0.03-1.69-0.01c-0.01-0.28-0.12-0.65-0.27-0.89c0.66,0.07,1.29,0.07,1.54,0.07c0.23,0,0.37-0.01,0.49-0.15
			c0.3-0.28,0.54-1.25,0.76-3.61h-1.68c-0.73,1.92-1.88,3.58-3.19,4.67c-0.18-0.16-0.58-0.49-0.82-0.63
			c1.26-0.95,2.31-2.4,2.97-4.04h-1.85c-1,1.77-2.55,3.31-4.12,4.31c-0.17-0.18-0.55-0.55-0.78-0.73c1.47-0.82,2.87-2.11,3.78-3.58
			h-1.91c-0.7,0.7-1.47,1.32-2.23,1.79c-0.16-0.19-0.55-0.55-0.8-0.71c1.33-0.76,2.65-1.88,3.52-3.15H53.5v-5.25h8.77V39h-6.08
			c-0.23,0.4-0.54,0.78-0.82,1.15H63.2z M54.5,35.96h6.74V34.6H54.5V35.96z M54.5,38.14h6.74v-1.36H54.5V38.14z"/>
		<path class="st0" d="M82.27,44.29c0,0.66-0.18,0.96-0.62,1.14c-0.47,0.17-1.26,0.18-2.55,0.17c-0.04-0.28-0.21-0.71-0.34-0.99
			c0.96,0.04,1.9,0.03,2.14,0.03c0.27-0.01,0.37-0.1,0.37-0.36v-2.79h-3.69v4.05h-1.02v-4.05h-3.43c-0.21,1.52-0.67,3.09-1.72,4.26
			c-0.15-0.21-0.56-0.55-0.78-0.67c1.51-1.7,1.65-4.12,1.65-6.03V34.1h10v10.19H82.27z M76.56,40.51v-2.28h-3.28v0.81
			c0,0.45-0.01,0.96-0.06,1.47C73.22,40.51,76.56,40.51,76.56,40.51z M73.28,35.07v2.2h3.28v-2.2H73.28z M81.27,35.07h-3.69v2.2
			h3.69V35.07z M81.27,40.51v-2.28h-3.69v2.28H81.27z"/>
		<path class="st0" d="M92.24,39.63c0-0.58,0.41-0.98,0.91-0.98c0.49,0,0.91,0.4,0.91,0.98c0,0.55-0.41,0.95-0.91,0.95
			S92.24,40.18,92.24,39.63z"/>
		<path class="st0" d="M107.22,40.32c-0.18-0.45-0.63-1.3-1.02-1.99v7.33h-0.93v-6.65c-0.47,1.51-1.07,2.97-1.7,3.87
			c-0.11-0.3-0.36-0.74-0.54-0.99c0.87-1.14,1.73-3.31,2.14-5.18h-1.73v-0.96h1.83v-2.64h0.93v2.64h1.52v0.96h-1.52v0.39
			c0.33,0.43,1.4,2.07,1.62,2.48L107.22,40.32z M115.27,37.96c-0.44,2.07-1.18,3.74-2.18,5.05c0.78,0.76,1.68,1.37,2.69,1.79
			c-0.23,0.19-0.52,0.56-0.69,0.84c-1-0.45-1.88-1.09-2.65-1.87c-0.76,0.81-1.61,1.44-2.53,1.92c-0.14-0.23-0.48-0.63-0.71-0.77
			c0.96-0.47,1.84-1.09,2.59-1.89c-0.74-0.92-1.36-2.02-1.85-3.21c-0.41,2.44-1.14,4.39-2.51,5.88c-0.16-0.15-0.6-0.48-0.84-0.62
			c2.16-2.09,2.68-5.56,2.84-10.11h-1.57v-0.95h6.03c-0.29,1.17-0.66,2.59-0.99,3.72h1.55l0.19-0.04L115.27,37.96z M110.39,34.96
			c-0.04,1-0.11,1.96-0.19,2.84c0.49,1.68,1.22,3.21,2.22,4.46c0.74-1,1.32-2.2,1.68-3.63h-2.44c0.34-0.98,0.73-2.4,1.03-3.68h-2.3
			V34.96z"/>
		<path class="st0" d="M128.77,43.81c-2.23,0.42-4.59,0.82-6.23,1.13l-0.17-1.04c0.74-0.11,1.69-0.26,2.72-0.41v-2.24h-2.36v-0.93
			h2.36v-1.55h1.02v1.55h2.36v0.93h-2.36v2.06c0.87-0.15,1.74-0.3,2.62-0.44L128.77,43.81z M133.87,36.62
			c-0.32,2.25-0.82,4.11-1.69,5.59c0.76,1.11,1.68,2,2.84,2.54c-0.23,0.19-0.54,0.59-0.7,0.85c-1.11-0.59-2-1.43-2.73-2.49
			c-0.8,1.04-1.8,1.88-3.13,2.56c-0.1-0.23-0.4-0.7-0.6-0.91c1.37-0.63,2.4-1.48,3.16-2.59c-0.6-1.13-1.09-2.42-1.43-3.85
			c-0.3,0.6-0.6,1.14-0.96,1.62c-0.16-0.19-0.54-0.59-0.77-0.77c0.22-0.29,0.44-0.6,0.62-0.96l-0.82,0.45
			c-0.08-0.19-0.18-0.4-0.3-0.63c-3.69,0.33-4.17,0.4-4.48,0.54v-0.01c-0.06-0.21-0.21-0.69-0.32-0.95c0.19-0.04,0.4-0.26,0.62-0.59
			c0.21-0.26,0.76-1.13,1.18-2.07h-1.83v-0.93h6.08v0.93h-3.14c-0.44,0.89-0.98,1.77-1.5,2.5l2.91-0.23
			c-0.26-0.43-0.54-0.88-0.8-1.25l0.77-0.38c0.6,0.82,1.3,1.96,1.62,2.64c0.78-1.39,1.33-3.21,1.69-5.1l1,0.18
			c-0.15,0.81-0.34,1.61-0.58,2.36h4.26v0.96h-0.97V36.62z M130.19,36.89c0.3,1.58,0.77,3.03,1.4,4.28
			c0.62-1.24,0.99-2.75,1.24-4.55h-2.54L130.19,36.89z"/>
		<path class="st0" d="M143.88,39.63c0-0.58,0.41-0.98,0.91-0.98c0.49,0,0.91,0.4,0.91,0.98c0,0.55-0.41,0.95-0.91,0.95
			C144.29,40.58,143.88,40.18,143.88,39.63z"/>
		<path class="st0" d="M159.47,33.44c-0.08,0.21-0.18,0.39-0.27,0.59c1.13,1.15,2.5,2.68,3.16,3.65l-0.73,0.67
			c-0.62-0.92-1.8-2.33-2.88-3.5c-0.86,1.48-2.03,2.86-3.38,3.9c-0.17-0.19-0.52-0.55-0.74-0.71c1.73-1.24,3.17-3.12,3.9-4.89
			L159.47,33.44z M160.39,44.58c0.63,0,0.73-0.29,0.8-1.9c0.23,0.15,0.62,0.32,0.91,0.37c-0.12,1.89-0.43,2.42-1.63,2.42h-2.54
			c-1.32,0-1.73-0.3-1.73-1.5v-5.85h4.97c0,0,0,0.29-0.01,0.41c-0.14,2.36-0.26,3.28-0.58,3.63c-0.21,0.23-0.44,0.31-0.78,0.36
			c-0.28,0.01-0.8,0.03-1.35-0.01c-0.03-0.28-0.12-0.63-0.25-0.88c0.49,0.05,0.96,0.05,1.17,0.05c0.18,0,0.29-0.01,0.4-0.12
			c0.15-0.21,0.29-0.87,0.4-2.53h-2.98v4.94c0,0.51,0.12,0.6,0.82,0.6L160.39,44.58L160.39,44.58z M163.99,42.3h-0.98v-7.57h0.98
			V42.3z M166.68,33.34v10.97c0,0.69-0.19,0.96-0.62,1.13c-0.44,0.16-1.19,0.19-2.47,0.18c-0.06-0.26-0.21-0.7-0.36-0.98
			c0.96,0.04,1.83,0.03,2.09,0.01c0.25-0.01,0.36-0.1,0.36-0.34V33.34H166.68z"/>
		<path class="st0" d="M176.15,41.58c-0.32,0.95-0.88,1.94-1.41,2.58c-0.17-0.14-0.49-0.4-0.7-0.52c0.55-0.59,1-1.43,1.28-2.28
			L176.15,41.58z M177.82,40.85v3.49c0,0.48-0.08,0.71-0.4,0.86c-0.31,0.15-0.78,0.17-1.44,0.17c-0.04-0.25-0.16-0.6-0.3-0.87
			c0.47,0.01,0.89,0.01,1.04,0c0.14,0,0.17-0.04,0.17-0.18v-3.47h-2.73v-0.88h2.73v-1.44h-2.8v-0.87h3.79
			c0.26-0.63,0.58-1.55,0.74-2.18l0.93,0.21c-0.23,0.66-0.51,1.4-0.76,1.98h1.74v0.87h-2.72v1.44h2.55v0.88L177.82,40.85
			L177.82,40.85z M180.32,35.42h-6.02v-0.85h2.7c-0.18-0.41-0.4-0.88-0.6-1.25l0.92-0.23c0.26,0.47,0.55,1.03,0.73,1.48h2.28
			L180.32,35.42L180.32,35.42z M176.03,35.51c0.27,0.59,0.52,1.4,0.58,1.92l-0.87,0.23c-0.05-0.52-0.27-1.35-0.54-1.96L176.03,35.51
			z M179.07,41.31c0.44,0.67,0.93,1.57,1.14,2.16l-0.71,0.41c-0.22-0.59-0.7-1.52-1.13-2.21L179.07,41.31z M186.53,38.68h-1.51v6.92
			h-0.99v-6.92h-2.07v0.44c0,1.96-0.18,4.64-1.43,6.41c-0.18-0.19-0.56-0.49-0.78-0.62c1.14-1.65,1.26-3.97,1.26-5.8v-4.68
			c1.52-0.25,3.28-0.66,4.27-1.07l0.81,0.75c-1.13,0.43-2.7,0.77-4.13,0.99v2.61h4.57V38.68z"/>
	</g>
</g>
</svg>
